<?xml version="1.0" encoding="utf-8"?>
<!-- Generator: Adobe Illustrator 21.0.2, SVG Export Plug-In . SVG Version: 6.00 Build 0)  -->
<svg version="1.1" id="Layer_1" xmlns="http://www.w3.org/2000/svg" xmlns:xlink="http://www.w3.org/1999/xlink" x="0px" y="0px"
	 viewBox="0 0 183 44" style="enable-background:new 0 0 183 44;" xml:space="preserve">
<style type="text/css">
	.st0{enable-background:new    ;}
	.st1{fill:#4D4E4C;}
	.st2{fill:none;stroke:#858B8C;stroke-width:0.8349;stroke-linecap:round;}
	.st3{fill:none;stroke:#4D4E4C;stroke-width:0.8349;stroke-linecap:round;}
	.st4{fill:url(#Fill-17_1_);}
	.st5{fill:none;stroke:#4D4E4C;stroke-width:0.8349;}
	.st6{fill:none;stroke:#4D4E4C;stroke-width:0.9;stroke-linecap:round;}
</style>
<title>Logo</title>
<desc>Created with Sketch.</desc>
<g id="Logo">
	<g id="Group-12-Copy" transform="translate(11.000000, 5.000000)">
		<g id="Group-51-Copy" transform="translate(51.000000, 5.000000)">
			<g class="st0">
				<path class="st1" d="M7.6,13.4H4.7v5.7H2.1V4.2h5.2c1.7,0,3,0.4,4,1.2c0.9,0.8,1.4,1.9,1.4,3.4c0,1-0.2,1.8-0.7,2.5
					c-0.5,0.7-1.2,1.2-2,1.6l3.3,6.2v0.1h-2.8L7.6,13.4z M4.7,11.3h2.7c0.9,0,1.6-0.2,2-0.7c0.5-0.4,0.7-1,0.7-1.8
					C10.1,8,9.9,7.4,9.4,7C9,6.5,8.3,6.3,7.4,6.3H4.7V11.3z"/>
				<path class="st1" d="M19.8,19.3c-1.6,0-2.9-0.5-3.8-1.5s-1.5-2.3-1.5-4v-0.3c0-1.1,0.2-2.1,0.6-3c0.4-0.9,1-1.5,1.8-2
					c0.8-0.5,1.6-0.7,2.6-0.7c1.5,0,2.7,0.5,3.5,1.4c0.8,1,1.2,2.3,1.2,4.1v1H17c0.1,0.9,0.4,1.6,0.9,2.2s1.2,0.8,2,0.8
					c1.1,0,2.1-0.5,2.8-1.4l1.3,1.3c-0.4,0.7-1,1.2-1.8,1.5S20.7,19.3,19.8,19.3z M19.5,9.8c-0.7,0-1.2,0.2-1.7,0.7
					c-0.4,0.5-0.7,1.1-0.8,2h4.7v-0.2c-0.1-0.8-0.3-1.5-0.7-1.9C20.7,10,20.2,9.8,19.5,9.8z"/>
				<path class="st1" d="M29.3,5.4V8h2v1.8h-2v6.2c0,0.4,0.1,0.7,0.3,0.9c0.2,0.2,0.5,0.3,0.9,0.3c0.3,0,0.6,0,0.9-0.1v1.9
					c-0.6,0.2-1.1,0.2-1.6,0.2c-1.9,0-2.9-1.1-2.9-3.2V9.9H25V8h1.8V5.4H29.3z"/>
				<path class="st1" d="M39.8,19.1c-0.1-0.2-0.2-0.6-0.3-1c-0.8,0.8-1.8,1.2-2.9,1.2c-1.1,0-2-0.3-2.7-1c-0.7-0.6-1.1-1.4-1.1-2.4
					c0-1.2,0.4-2.1,1.3-2.7s2.1-0.9,3.8-0.9h1.5v-0.7c0-0.6-0.2-1-0.5-1.4c-0.3-0.3-0.8-0.5-1.5-0.5c-0.6,0-1,0.1-1.4,0.4
					c-0.4,0.3-0.5,0.6-0.5,1.1H33c0-0.6,0.2-1.2,0.6-1.7c0.4-0.5,1-0.9,1.6-1.2C36,8,36.8,7.8,37.6,7.8c1.3,0,2.3,0.3,3.1,1
					s1.2,1.6,1.2,2.7v5c0,1,0.1,1.8,0.4,2.4v0.2H39.8z M37,17.3c0.5,0,1-0.1,1.4-0.4c0.4-0.2,0.8-0.6,1-1v-2.1h-1.3
					c-0.9,0-1.6,0.2-2.1,0.5c-0.5,0.3-0.7,0.8-0.7,1.4c0,0.5,0.2,0.9,0.5,1.1S36.5,17.3,37,17.3z"/>
				<path class="st1" d="M44.5,5.2c0-0.4,0.1-0.7,0.4-1c0.2-0.3,0.6-0.4,1-0.4s0.8,0.1,1,0.4c0.2,0.3,0.4,0.6,0.4,1
					c0,0.4-0.1,0.7-0.4,0.9c-0.2,0.3-0.6,0.4-1,0.4s-0.8-0.1-1-0.4S44.5,5.5,44.5,5.2z M47.2,19.1h-2.5V8h2.5V19.1z"/>
				<path class="st1" d="M52.5,19.1H50V3.4h2.5V19.1z"/>
			</g>
			<g id="Group-50" transform="translate(55.000000, 0.016880)">
				<g class="st0">
					<path class="st1" d="M6.7,17.3l0.1,0.3l0.1-0.3l4.7-13.1h1.4L7.4,19.1H6.2L0.6,4.2H2L6.7,17.3z"/>
					<path class="st1" d="M14.8,4.8c0-0.2,0.1-0.4,0.2-0.6S15.3,4,15.6,4c0.3,0,0.5,0.1,0.6,0.2s0.2,0.4,0.2,0.6s-0.1,0.4-0.2,0.6
						s-0.4,0.2-0.6,0.2c-0.3,0-0.5-0.1-0.6-0.2S14.8,5.1,14.8,4.8z M16.2,19.1H15V8h1.2V19.1z"/>
					<path class="st1" d="M26.2,16.3c0-0.6-0.2-1.1-0.7-1.5c-0.5-0.4-1.2-0.7-2.2-0.9c-1-0.2-1.7-0.4-2.3-0.7
						c-0.5-0.3-0.9-0.6-1.2-1c-0.3-0.4-0.4-0.9-0.4-1.4c0-0.9,0.4-1.6,1.1-2.2c0.7-0.6,1.7-0.9,2.8-0.9c1.2,0,2.2,0.3,3,0.9
						c0.7,0.6,1.1,1.4,1.1,2.4h-1.2c0-0.6-0.3-1.2-0.8-1.6c-0.5-0.4-1.2-0.6-2.1-0.6c-0.8,0-1.5,0.2-1.9,0.5
						c-0.5,0.4-0.7,0.8-0.7,1.4c0,0.6,0.2,1,0.6,1.3s1.1,0.6,2.2,0.8c1.1,0.3,1.9,0.5,2.4,0.8s0.9,0.6,1.2,1s0.4,0.9,0.4,1.5
						c0,0.9-0.4,1.7-1.1,2.2s-1.7,0.8-3,0.8c-1.3,0-2.3-0.3-3.1-0.9C19.4,17.7,19,17,19,16h1.2c0,0.7,0.3,1.3,0.9,1.7
						c0.6,0.4,1.3,0.6,2.2,0.6c0.9,0,1.5-0.2,2.1-0.6C25.9,17.3,26.2,16.9,26.2,16.3z"/>
					<path class="st1" d="M30.1,4.8c0-0.2,0.1-0.4,0.2-0.6S30.6,4,30.9,4c0.3,0,0.5,0.1,0.6,0.2s0.2,0.4,0.2,0.6s-0.1,0.4-0.2,0.6
						s-0.4,0.2-0.6,0.2c-0.3,0-0.5-0.1-0.6-0.2S30.1,5.1,30.1,4.8z M31.5,19.1h-1.2V8h1.2V19.1z"/>
					<path class="st1" d="M34.2,13.4c0-1.1,0.2-2,0.6-2.9c0.4-0.9,1-1.5,1.8-2c0.8-0.5,1.6-0.7,2.6-0.7c1.5,0,2.7,0.5,3.6,1.6
						s1.4,2.4,1.4,4.1v0.3c0,1.1-0.2,2-0.6,2.9c-0.4,0.9-1,1.5-1.7,2c-0.8,0.5-1.6,0.7-2.6,0.7c-1.5,0-2.7-0.5-3.6-1.6
						s-1.4-2.4-1.4-4.1V13.4z M35.4,13.7c0,1.3,0.3,2.4,1,3.3c0.7,0.8,1.6,1.3,2.7,1.3c1.1,0,2-0.4,2.7-1.3c0.7-0.9,1-2,1-3.4v-0.2
						c0-0.8-0.2-1.6-0.5-2.3S41.6,9.8,41,9.4c-0.6-0.4-1.2-0.6-1.9-0.6c-1.1,0-2,0.4-2.7,1.3s-1,2-1,3.4V13.7z"/>
					<path class="st1" d="M47.8,8l0,1.9c0.4-0.7,0.9-1.2,1.6-1.6s1.3-0.5,2.1-0.5c1.2,0,2.1,0.3,2.7,1s0.9,1.7,0.9,3v7.3h-1.2v-7.3
						c0-1-0.2-1.7-0.6-2.2c-0.4-0.5-1.1-0.7-2-0.7c-0.8,0-1.4,0.2-2,0.7c-0.6,0.5-1,1.1-1.3,1.9v7.6h-1.2V8H47.8z"/>
				</g>
			</g>
		</g>
		<g id="Group-48-Copy">
			<g id="Group-23" transform="translate(0.000000, 0.017616)">
				<line id="Stroke-1" class="st2" x1="0.5" y1="17.4" x2="10.7" y2="17.4"/>
				<line id="Stroke-3" class="st2" x1="29.1" y1="17.5" x2="39.3" y2="17.5"/>
				<line id="Stroke-5" class="st2" x1="19.9" y1="30.3" x2="19.9" y2="34.2"/>
				<line id="Stroke-7" class="st2" x1="19.9" y1="0.4" x2="19.9" y2="4.1"/>
				<path id="Stroke-9" class="st3" d="M0.7,17.3c4.6-5.6,11.6-9.2,19.4-9.2c7.8,0,14.8,3.6,19.4,9.1"/>
				<path id="Stroke-11" class="st3" d="M40.2,12.4c-5.2-5.5-12.2-8.3-20-8.4c0,0-0.1,0-0.1,0c-7.8,0-14.8,2.9-20,8.4"/>
				<path id="Stroke-13" class="st3" d="M40.2,22.1c-5.2,5.5-12.2,8.3-20,8.4c0,0-0.1,0-0.1,0c-7.8,0-14.8-2.9-20-8.4"/>
				<path id="Stroke-15" class="st3" d="M0.7,17.4c4.6,5.6,11.6,9.2,19.4,9.2c7.7,0,14.6-3.5,19.2-8.9c0.1-0.1,0.1-0.2,0.2-0.2"/>
				
					<radialGradient id="Fill-17_1_" cx="-321.6721" cy="299.8606" r="0.7907" gradientTransform="matrix(18.4542 0 0 -18.4542 5956.1191 5551.2192)" gradientUnits="userSpaceOnUse">
					<stop  offset="0" style="stop-color:#C0FF00"/>
					<stop  offset="0.4187" style="stop-color:#B7F502"/>
					<stop  offset="0.8483" style="stop-color:#91CB0B"/>
					<stop  offset="1" style="stop-color:#89C20D"/>
				</radialGradient>
				<path id="Fill-17" class="st4" d="M29.1,17.5c0-5.1-4.1-9.2-9.2-9.2c-5.1,0-9.2,4.1-9.2,9.2c0,5.1,4.1,9.2,9.2,9.2
					C25,26.8,29.1,22.6,29.1,17.5"/>
				<path id="Stroke-19" class="st5" d="M29.1,17.5c0-5.1-4.1-9.2-9.2-9.2c-5.1,0-9.2,4.1-9.2,9.2c0,5.1,4.1,9.2,9.2,9.2
					C25,26.8,29.1,22.6,29.1,17.5z"/>
			</g>
			<g id="Group-41" transform="translate(17.000000, 11.000000)">
				<g id="Group-11" transform="translate(0.190562, 0.800000)">
					<path id="Fill-39" class="st1" d="M4.1,0.4C4.1,0.2,3.9,0,3.6,0H1.8C1.6,0,1.4,0.2,1.4,0.4v3.1C0.5,4,0,4.7,0,5.6v4.4
						c0,0.2,0.2,0.4,0.5,0.4s0.5-0.2,0.5-0.4V5.6C0.9,5,1.3,4.4,2,4.1c0.2-0.1,0.3-0.2,0.3-0.4v-3h0.9v3c0,0.2,0.1,0.3,0.3,0.4
						C4.1,4.4,4.5,5,4.5,5.6v4.4c0,0.2,0.2,0.4,0.5,0.4s0.5-0.2,0.5-0.4V5.6c0-0.9-0.5-1.7-1.4-2.1V0.4z"/>
					<path id="Path-2" class="st6" d="M0.5,10.3C2,11,3.4,11,4.9,10.3"/>
				</g>
			</g>
		</g>
	</g>
</g>
</svg>
